<svg width="1024" height="16082" viewBox="0 0 1024 16082" fill="none"
    xmlns="http://www.w3.org/2000/svg">
    <g id="Illustration full mobile_Jan8" clip-path="url(#clip0_0_1)">
        <g id="Group 163">
            <g id="flower">
                <path id="flower-white"
                    d="M607.699 14703.1C610.699 14676.9 623.1 14658.2 621.9 14632.8C621.4 14624.3 622.9 14613.3 616.2 14608.5C591.4 14603.8 603.399 14669.1 605.199 14683.5C605.299 14685.4 607.699 14696.1 606.999 14697.7C606.399 14699.3 604.399 14699.2 603.399 14698.2C595.699 14690.2 590.8 14679.8 582.6 14672.5C571.7 14662.5 557.1 14652.8 542.3 14652.3C538.8 14652.3 535.3 14653.1 534.4 14654.6C533.4 14656.5 533.199 14656.8 535.999 14659.5C547.199 14668.5 563.4 14674.4 577.5 14677.4C582.8 14678.4 586.6 14681.4 589.7 14684.3C593.8 14687.8 611.9 14711 598.9 14710.7C597.7 14710.3 598.099 14710.4 597.699 14710.2C596.299 14709.5 594.8 14708.6 593.7 14707.6C586.3 14700.9 577 14696.2 568.3 14691.8C554.7 14685.1 537.4 14681.8 524.4 14691.2C514.6 14697.1 498.5 14720.1 519.7 14720.5C542.9 14719.4 566.399 14707.4 590.899 14709.6C595.199 14710.3 599 14709.6 602.3 14714.3C603.8 14717.7 602 14720.2 600.7 14721.5C597.5 14724.1 595.1 14724 593 14724.5C575.5 14725.6 558.399 14729.2 545.899 14741.7C538.099 14749.1 530.599 14758.8 528.399 14769.3C528.099 14772.7 528.6 14773.2 531.1 14773.8C542.9 14773.9 555.899 14763.5 566.299 14757.4C578.399 14747.6 588.4 14734.1 599.3 14722.8C601.7 14720 607.499 14715.4 609.899 14721.1C610.399 14729.8 604.6 14737.5 601.4 14745.2C593.1 14763.2 580.399 14779.1 569.199 14795.2C567.599 14798.1 567.6 14802 568 14801.7C568.2 14802.4 572.5 14802 575.7 14800.6C593.4 14793.5 608.5 14778.2 612.9 14759.3C616 14750.6 611.6 14740.7 614.1 14732.2C615.3 14731.2 616.3 14732.3 616.6 14732.6C633.6 14751.3 618.8 14776.9 618.6 14797.7C618.7 14799.4 619.7 14800.9 619.7 14800.7C619.6 14800.7 621.1 14800.3 622.3 14799C631.7 14788.8 637.7 14772.2 633.2 14758.6C628.1 14747.1 620.3 14736.3 614.7 14724.7C614.3 14723.6 613.8 14723 613.7 14721.1C612 14721.1 618.599 14715.1 618.499 14717.5C620.099 14718 619.799 14718.1 620.199 14718.3C639.499 14738.2 665.999 14760.5 695.199 14758.4C703.499 14756.1 698.5 14746.5 695.1 14741.6C685.7 14729 669 14723.9 653.7 14721.7C643.5 14719.8 633.4 14724.2 622.8 14722.7C621.4 14722.3 620.399 14722.7 617.399 14719.6C614.099 14715.7 617.2 14710.7 619.1 14710.2C622.6 14708.8 624.1 14708.4 626.4 14707.8C643.9 14705 660.3 14696.9 674.3 14686.5C680.1 14682.1 686.2 14676.3 686.8 14671.6C687.8 14658.5 661.599 14671.7 656.999 14677C650.999 14682.6 647.099 14687.6 639.199 14693.8C638.299 14696.1 637.399 14698.1 635.899 14699.3C633.399 14702.9 627.3 14701.5 623.9 14703.6C621.9 14704.5 619.899 14705.5 618.099 14706.7L616.699 14705.5C618.699 14701.1 620.5 14697.1 621.6 14692.1C623 14687 627.799 14684.9 632.699 14684.6L643 14678.6C654.4 14673.2 661.6 14662.8 674.2 14658.5C684.9 14653.7 699.3 14658.6 696.9 14673.2C694 14684.6 685.8 14689.2 679 14693.7C663 14703.2 645.6 14708.9 628 14713.6C626.5 14714.3 624 14714.9 624.4 14716.1C624.7 14716.7 627.2 14714.4 625.4 14711.9C623.9 14710.2 624.9 14711 625.4 14711.1C648.9 14721.4 678.8 14719.8 697.2 14739.8C715.9 14763.2 689.3 14767.3 671.5 14760.5C650.2 14753.7 630.9 14740.3 615.8 14724.3C615.9 14724.3 615.5 14724.3 616.8 14724.7C616.5 14726.9 622.7 14721.2 621.1 14721.4C621.1 14720.7 621 14720.4 621.1 14720.6C621.7 14722.3 633.5 14742.4 634.6 14744.6C638.8 14751.6 643.1 14760.6 641.9 14769.1C640.8 14782.1 635.7 14794.3 625.8 14803.1C624.1 14804.3 621.799 14806.6 617.699 14805.4C613.899 14803.3 614.099 14800.2 613.799 14798.1C614.199 14781.2 624.099 14767.6 622.399 14750.9C622.199 14744.9 617.799 14737.7 615.199 14733.4C614.199 14741.8 617.299 14751.2 615.199 14759.8C612.199 14776 602.5 14790.7 589.1 14800.4C581.6 14805.2 572.8 14813.1 563.2 14807.7C557.9 14803 559.799 14796.9 561.699 14791.8C575.699 14768.8 594.099 14748.2 603.499 14722.6C603.499 14723.1 604.699 14725 605.999 14724.8C607.099 14724.8 606.8 14724.6 606.6 14724.8C604.6 14726 601.1 14729.5 599.3 14731.2C589.7 14741.1 579.399 14751.5 569.199 14760.7C558.999 14770.6 545.3 14780 530.5 14780.8C524.4 14780.8 519.8 14773.9 521.1 14768.3C525.5 14747.2 542.299 14730.1 561.699 14721.8C572.299 14717.1 585.2 14718 595.5 14715.8C595.5 14715.8 595 14716.1 595.5 14717.7C596.2 14718.7 595.899 14718 595.299 14717.9C593.999 14717.4 592.2 14717.1 590.4 14717C566.3 14714.3 544.4 14724.8 519.7 14725C515.8 14724.9 510.4 14724.8 506.9 14720.3C499.2 14707.5 512.9 14694.6 522.3 14687.9C536.6 14678 555.1 14682 569.6 14689.2C580.7 14694.5 589.4 14701 600.7 14703.9C599.8 14703.3 596.6 14704.9 596.8 14706.8C596.8 14707.5 596.5 14706 596.1 14705.5C591.9 14697.7 584 14686.9 576.2 14685.2C559.5 14681.5 544.399 14676.1 530.599 14665.4C525.999 14662 523.799 14654.5 528.499 14649.5C536.999 14641.8 546.499 14645.5 555.299 14648.5C576.7 14658.5 591.5 14678.7 605.4 14695.9C604 14695.9 604.3 14697.4 604.1 14695.9C600.5 14676.3 596.6 14656.4 596.4 14636.3C596.5 14628.2 596.699 14619.9 600.199 14611.7C602.899 14603 617.699 14597.3 624.499 14607.8C631.599 14624.3 630.1 14640.4 628.3 14657.5C625.7 14673.6 619.899 14689.4 619.499 14703.5L607.799 14703.2L607.699 14703.1Z"
                    fill="#DDDDDD" />
                <path id="flower-track"
                    d="M506.5 14678.5C595.5 14731.5 614 14724.5 594.1 14692.6C551.4 14624.4 623.9 14543.4 604.7 14678C602.6 14692.6 608.7 14711.8 613.5 14708.9C621 14704.2 611.1 14640.5 666 14637.2C714.5 14634.3 651.4 14662.8 620.5 14711.2C616.2 14717.9 644.5 14701.3 655.6 14697.8C666.7 14694.3 684.6 14696.9 695.1 14701C716.1 14709.2 740.2 14728.1 694.2 14722.3C683 14720.9 665.5 14706 639.8 14713C621.3 14718.1 627.5 14721.2 642.1 14721.2C656.7 14721.2 681.3 14728.2 693.6 14753.8C705.9 14779.4 689.3 14777.8 677.8 14766C659.7 14747.4 620.5 14721.1 618.2 14724C615.9 14726.9 648.8 14752.9 659.6 14772.4C669 14789.3 682.4 14820.1 673.7 14823C664.9 14825.9 627 14794.4 618.8 14770.5C611.8 14750.3 618.8 14733.2 613 14730.9C607.2 14728.6 598.7 14747.5 599.8 14759.7C601 14771.9 630 14827.8 621.7 14834.6C615.3 14839.8 589.9 14820.1 580.8 14807.8C558.6 14777.5 594.2 14745.4 603 14729.1C604.6 14726 578.1 14732.9 560.9 14778.1C536.4 14842.2 521.7 14805.5 532.6 14778.4C542.5 14753.7 568.5 14736.7 577.6 14732.9C589.1 14728.1 600.7 14715.9 596.6 14715.3"
                    stroke="#B7B7B7" stroke-width="5" stroke-miterlimit="10" />
                <path id="flower-move"
                    d="M506.5 14678.5C595.5 14731.5 614 14724.5 594.1 14692.6C551.4 14624.4 623.9 14543.4 604.7 14678C602.6 14692.6 608.7 14711.8 613.5 14708.9C621 14704.2 611.1 14640.5 666 14637.2C714.5 14634.3 651.4 14662.8 620.5 14711.2C616.2 14717.9 644.5 14701.3 655.6 14697.8C666.7 14694.3 684.6 14696.9 695.1 14701C716.1 14709.2 740.2 14728.1 694.2 14722.3C683 14720.9 665.5 14706 639.8 14713C621.3 14718.1 627.5 14721.2 642.1 14721.2C656.7 14721.2 681.3 14728.2 693.6 14753.8C705.9 14779.4 689.3 14777.8 677.8 14766C659.7 14747.4 620.5 14721.1 618.2 14724C615.9 14726.9 648.8 14752.9 659.6 14772.4C669 14789.3 682.4 14820.1 673.7 14823C664.9 14825.9 627 14794.4 618.8 14770.5C611.8 14750.3 618.8 14733.2 613 14730.9C607.2 14728.6 598.7 14747.5 599.8 14759.7C601 14771.9 630 14827.8 621.7 14834.6C615.3 14839.8 589.9 14820.1 580.8 14807.8C558.6 14777.5 594.2 14745.4 603 14729.1C604.6 14726 578.1 14732.9 560.9 14778.1C536.4 14842.2 521.7 14805.5 532.6 14778.4C542.5 14753.7 568.5 14736.7 577.6 14732.9C589.1 14728.1 600.7 14715.9 596.6 14715.3"
                    stroke="#C80041" stroke-width="5" stroke-miterlimit="10" />
                <path id="gradient-rects" fill-rule="evenodd" clip-rule="evenodd"
                    d="M240.4 15557L197.1 15600.3L240.4 15643.6L283.7 15600.3L240.4 15557ZM195.2 15598.3L193.2 15600.3L195.2 15602.3L238.5 15645.6L238.8 15645.9L195.5 15689.3L195.3 15689.5L195.1 15689.3L151.8 15646L149.8 15644L147.8 15646L104.5 15689.3L102.5 15691.3L104.5 15693.3L147.8 15736.6L148 15736.8L147.8 15737L104.5 15780.3L102.5 15782.3L104.5 15784.3L147.8 15827.6L149.8 15829.6L151.8 15827.6L195.1 15784.3L197.1 15782.3L195.1 15780.3L151.8 15737L151.6 15736.8L151.8 15736.6L195.1 15693.3L195.3 15693.1L195.5 15693.3L238.8 15736.6L240.8 15738.6L242.8 15736.6L286.1 15693.3L286.3 15693.1L286.5 15693.3L329.8 15736.6L331.8 15738.6L333.8 15736.6L377.1 15693.3L379.1 15691.3L377.1 15689.3L333.8 15646L331.8 15644L329.8 15646L286.5 15689.3L286.3 15689.5L286.1 15689.3L242.8 15646L242.5 15645.7L285.8 15602.3L287.8 15600.3L285.8 15598.3L242.5 15555L240.5 15553L238.5 15555L195.2 15598.3ZM149.6 15648L106.3 15691.3L149.6 15734.6L192.9 15691.3L149.6 15648ZM288.4 15691.3L331.7 15648L375 15691.3L331.7 15734.6L288.4 15691.3ZM149.6 15739L106.3 15782.3L149.6 15825.6L192.9 15782.3L149.6 15739ZM197.4 15691.3L240.7 15648L284 15691.3L240.7 15734.6L197.4 15691.3Z"
                    fill="url(#paint0_linear_0_1)" />
                <path id="flower-bottom--track"
                    d="M239 15557C239.5 15532.7 238 15508.1 241 15483.7C247.7 15399.8 323.4 15364 397.8 15353.3C446.3 15347.4 494.5 15341.8 539.1 15320.8C718.7 15243.7 808.5 15006.7 711.8 14833.8C688.8 14791.2 656.2 14754.2 618.1 14724.4L621.1 14720.4C660.5 14749.7 694.7 14786.7 718.8 14829.9C820.8 15005.9 729.3 15252.7 542 15327.4C455 15368.8 338 15338.1 269.9 15417.4C238.3 15456.2 240.7 15509.4 242 15556.9H239V15557Z"
                    fill="#B7B7B7" />
                <path id="flower-bottom--move"
                    d="M239 15557C239.5 15532.7 238 15508.1 241 15483.7C247.7 15399.8 323.4 15364 397.8 15353.3C446.3 15347.4 494.5 15341.8 539.1 15320.8C718.7 15243.7 808.5 15006.7 711.8 14833.8C688.8 14791.2 656.2 14754.2 618.1 14724.4L621.1 14720.4C660.5 14749.7 694.7 14786.7 718.8 14829.9C820.8 15005.9 729.3 15252.7 542 15327.4C455 15368.8 338 15338.1 269.9 15417.4C238.3 15456.2 240.7 15509.4 242 15556.9H239V15557Z"
                    fill="#C80041" />
            </g>
            <g id="mountains">
                <path id="Vector" d="M433.4 12600.5H404.9V12619.3H433.4V12600.5Z" fill="#C80041" />
                <path id="Vector_2" opacity="0.8"
                    d="M403.9 12647.8L281 12813.7L522.1 12813.1L403.9 12647.8Z" fill="#C1C5C8" />
                <path id="Vector_3" opacity="0.8"
                    d="M468.6 12688.1L379.3 12813.1H557.8L468.6 12688.1Z" fill="#ADB2B6" />
                <path id="Vector_4"
                    d="M347.101 12727.4C347.101 12727.4 399.201 12731 429.501 12709.2C410.101 12709.2 378.001 12684.4 382.101 12678.3C384.101 12675.3 404.001 12648 404.001 12648V12599.7H434.301V12617.7H404.001"
                    stroke="#C80041" stroke-width="5" stroke-linecap="round" stroke-linejoin="round" />
                <path id="Vector_5" opacity="0.8"
                    d="M368.8 12759.8L341.9 12797.5L291.9 12727.4L208.4 12844.3H308.5H375.4H429.2L368.8 12759.8Z"
                    fill="#848C91" />
                <path id="Vector_6"
                    d="M208.4 12844.6C262.3 12848.2 362.8 12818.6 362.8 12818.6C362.8 12818.6 307.7 12815.6 259.8 12792C300.4 12793.2 327.6 12779.3 327.6 12779.3"
                    stroke="#C80041" stroke-width="5" stroke-linecap="round" stroke-linejoin="round" />
                <path id="Vector_7"
                    d="M428.6 12714.7C431.804 12714.7 434.4 12712.1 434.4 12708.9C434.4 12705.7 431.804 12703.1 428.6 12703.1C425.397 12703.1 422.8 12705.7 422.8 12708.9C422.8 12712.1 425.397 12714.7 428.6 12714.7Z"
                    fill="#5B656D" />
                <path id="Vector_8"
                    d="M382.5 12684.5C385.703 12684.5 388.3 12681.9 388.3 12678.7C388.3 12675.5 385.703 12672.9 382.5 12672.9C379.297 12672.9 376.7 12675.5 376.7 12678.7C376.7 12681.9 379.297 12684.5 382.5 12684.5Z"
                    fill="#5B656D" />
                <path id="Vector_9"
                    d="M361.301 12823.5C364.504 12823.5 367.1 12820.9 367.1 12817.7C367.1 12814.5 364.504 12811.9 361.301 12811.9C358.097 12811.9 355.5 12814.5 355.5 12817.7C355.5 12820.9 358.097 12823.5 361.301 12823.5Z"
                    fill="#5B656D" />
                <path id="Vector_10"
                    d="M259.6 12797.4C262.804 12797.4 265.4 12794.8 265.4 12791.6C265.4 12788.4 262.804 12785.8 259.6 12785.8C256.397 12785.8 253.8 12788.4 253.8 12791.6C253.8 12794.8 256.397 12797.4 259.6 12797.4Z"
                    fill="#5B656D" />
                <g id="Group">
                    <path id="Vector_11"
                        d="M425.766 12611.8L422.23 12608.3L418.694 12611.8L422.23 12615.4L425.766 12611.8Z"
                        fill="white" />
                    <path id="Vector_12"
                        d="M418.504 12611.8L414.968 12608.2L411.433 12611.8L414.968 12615.3L418.504 12611.8Z"
                        fill="white" />
                    <path id="Vector_13"
                        d="M425.727 12604.5L422.192 12600.9L418.656 12604.5L422.192 12608L425.727 12604.5Z"
                        fill="white" />
                </g>
            </g>
            <g id="butterfly">
                <g id="butterfly-body">
                    <path id="Vector_4_2" opacity="0.5"
                        d="M680.409 9990.2L699.83 10016.1C719.262 10042 713.974 10078.9 688.031 10098.3L662.103 10117.7L642.682 10091.8C623.25 10065.9 628.537 10029 654.481 10009.6L680.409 9990.2Z"
                        fill="#ADB2B6" />
                    <path id="Vector_5_2" opacity="0.5"
                        d="M534.3 10099.6L560.228 10080.2C586.172 10060.7 623.011 10066 642.443 10092L661.863 10117.9L635.935 10137.3C609.991 10156.7 573.152 10151.4 553.721 10125.5L534.3 10099.6Z"
                        fill="#ADB2B6" />
                    <path id="Vector_6_2" opacity="0.5"
                        d="M721.579 10004L730.75 10035.1C739.926 10066.1 722.137 10098.8 691.049 10108L659.979 10117.2L650.808 10086.1C641.632 10055 659.421 10022.3 690.509 10013.2L721.579 10004Z"
                        fill="#ADB2B6" />
                    <path id="Vector_7_2" opacity="0.5"
                        d="M535.046 10148.1L551.676 10120.3C568.315 10092.5 604.408 10083.4 632.225 10100L660.027 10116.7L643.397 10144.5C626.757 10172.3 590.664 10181.4 562.847 10164.7L535.046 10148.1Z"
                        fill="#ADB2B6" />
                    <path id="Vector_8_2"
                        d="M653.1 10204.8C634.167 10179 639.754 10142.6 665.57 10123.7C684.504 10149.5 678.916 10185.9 653.1 10204.8Z"
                        stroke="#ADB2B6" stroke-width="5" stroke-miterlimit="10" />
                    <path id="Vector_9_2"
                        d="M665.565 10123.7C691.382 10104.8 727.713 10110.4 746.646 10136.2C720.83 10155.1 684.499 10149.5 665.565 10123.7Z"
                        stroke="#ADB2B6" stroke-width="5" stroke-miterlimit="10" />
                </g>
                <path id="Vector_10_2"
                    d="M619.771 10039.1C619.771 10039.1 606.34 10022.4 610.817 9989.8"
                    stroke="#ADB2B6" stroke-width="5" stroke-linecap="round" stroke-linejoin="round" />
                <path id="Vector_11_2"
                    d="M560.277 10040.8C560.277 10040.8 584.512 10040.1 594.746 10051"
                    stroke="#ADB2B6" stroke-width="5" stroke-linecap="round" stroke-linejoin="round" />
                <path id="Vector_12_2"
                    d="M612.416 9985.7C620.187 9985.7 626.487 9979.4 626.487 9971.6C626.487 9963.8 620.187 9957.5 612.416 9957.5C604.645 9957.5 598.345 9963.8 598.345 9971.6C598.345 9979.4 604.645 9985.7 612.416 9985.7Z"
                    fill="#C80041" />
                <path id="Vector_13_2"
                    d="M541.538 10050C546.837 10050 551.132 10045.7 551.132 10040.4C551.132 10035.1 546.837 10030.9 541.538 10030.9C536.239 10030.9 531.944 10035.1 531.944 10040.4C531.944 10045.7 536.239 10050 541.538 10050Z"
                    fill="#C80041" />
            </g>
            <path id="butterfly-track"
                d="M190.499 9874C189.799 9923.6 232.499 9959.7 276.299 9974.1C291.199 9979.4 306.499 9982.3 322.299 9982.2C400.599 9983.4 487.199 9955.1 563.599 9988.8C578.799 9996.1 590.499 10010 600.099 10023.2C638.599 10075.3 672.199 10130.3 705.899 10185.4C774.099 10292.5 819.899 10435.4 763.599 10557.2C716.199 10656.9 607.799 10667.6 510.299 10675.8C414.299 10684.8 317.399 10689.4 224.099 10714.7C178.499 10727.6 131.899 10745.5 99.1991 10780.7C68.5991 10816.4 47.5992 10861.2 34.8992 10906C-3.00084 11035.1 42.7991 11154.7 141.699 11241.9C214.399 11305.9 317.899 11310.5 409.899 11322.9C487.499 11333.4 580.299 11342.4 629.599 11411.7C656.599 11451.9 681.799 11494.8 689.199 11543.4C694.099 11575.5 693.699 11607.9 694.199 11640.1H689.199C689.299 11608 690.499 11575.6 685.499 11544C678.599 11496.1 652.399 11453.9 625.299 11414.7C545.999 11308.2 337.199 11347.4 216.699 11303.1C152.799 11284.1 101.499 11236.6 61.5992 11184.1C1.29916 11104.7 -20.1008 10993.9 15.4992 10899.8C73.7992 10747 165.799 10713.4 317.399 10690.2C381.199 10680.3 445.499 10675.2 509.399 10668.3C603.199 10658.3 708.299 10648.5 753.399 10552.2C806.899 10434.1 760.799 10295.8 695.099 10191.7C661.699 10137 627.899 10082 590.699 10029.9C581.499 10017.1 572.299 10005.4 558.199 9998.3C515.399 9977.4 465.299 9982.3 418.599 9984.8C386.599 9987 354.599 9991 321.799 9990.5C288.699 9990.3 256.399 9977.6 229.899 9958.2C203.099 9939 183.999 9907.4 185.099 9873.9H190.099L190.499 9874Z"
                fill="#B7B7B7" />
            <path id="butterfly-move"
                d="M190.499 9874C189.799 9923.6 232.499 9959.7 276.299 9974.1C291.199 9979.4 306.499 9982.3 322.299 9982.2C400.599 9983.4 487.199 9955.1 563.599 9988.8C578.799 9996.1 590.499 10010 600.099 10023.2C638.599 10075.3 672.199 10130.3 705.899 10185.4C774.099 10292.5 819.899 10435.4 763.599 10557.2C716.199 10656.9 607.799 10667.6 510.299 10675.8C414.299 10684.8 317.399 10689.4 224.099 10714.7C178.499 10727.6 131.899 10745.5 99.1991 10780.7C68.5991 10816.4 47.5992 10861.2 34.8992 10906C-3.00084 11035.1 42.7991 11154.7 141.699 11241.9C214.399 11305.9 317.899 11310.5 409.899 11322.9C487.499 11333.4 580.299 11342.4 629.599 11411.7C656.599 11451.9 681.799 11494.8 689.199 11543.4C694.099 11575.5 693.699 11607.9 694.199 11640.1H689.199C689.299 11608 690.499 11575.6 685.499 11544C678.599 11496.1 652.399 11453.9 625.299 11414.7C545.999 11308.2 337.199 11347.4 216.699 11303.1C152.799 11284.1 101.499 11236.6 61.5992 11184.1C1.29916 11104.7 -20.1008 10993.9 15.4992 10899.8C73.7992 10747 165.799 10713.4 317.399 10690.2C381.199 10680.3 445.499 10675.2 509.399 10668.3C603.199 10658.3 708.299 10648.5 753.399 10552.2C806.899 10434.1 760.799 10295.8 695.099 10191.7C661.699 10137 627.899 10082 590.699 10029.9C581.499 10017.1 572.299 10005.4 558.199 9998.3C515.399 9977.4 465.299 9982.3 418.599 9984.8C386.599 9987 354.599 9991 321.799 9990.5C288.699 9990.3 256.399 9977.6 229.899 9958.2C203.099 9939 183.999 9907.4 185.099 9873.9H190.099L190.499 9874Z"
                fill="#C80041" />
            <path id="mountain-bottom-line-track"
                d="M529.2 14694.6C383 14608.4 242.8 14555.8 181.2 14381.3C162.4 14331.2 152.3 14278.3 144.2 14225.6C127.5 14120.4 113.5 14013.5 122.6 13906.8C130.4 13800 175.7 13682.5 294.2 13663.2C347 13656.8 399.9 13650.3 450 13631.6C701.4 13545.3 853.8 13244 783.1 12989.6C752.7 12883.8 667 12807.1 553.6 12810V12805C671 12799.8 760.2 12876.7 792.6 12986.7C868.2 13246.7 711.9 13554.7 452.4 13638.2C401.8 13656.5 348.1 13661.9 295.2 13668.1C178.9 13687 135.2 13802.3 127.3 13907.3C118.1 14013.5 131.9 14120.2 148.5 14225.1C163.3 14329.4 192.3 14437.2 266.4 14515.7C339.5 14594.6 441.6 14635.3 532 14690.5L529.4 14694.8L529.2 14694.6Z"
                fill="#B7B7B7" />
            <path id="mountain-bottom-line-move"
                d="M529.2 14694.6C383 14608.4 242.8 14555.8 181.2 14381.3C162.4 14331.2 152.3 14278.3 144.2 14225.6C127.5 14120.4 113.5 14013.5 122.6 13906.8C130.4 13800 175.7 13682.5 294.2 13663.2C347 13656.8 399.9 13650.3 450 13631.6C701.4 13545.3 853.8 13244 783.1 12989.6C752.7 12883.8 667 12807.1 553.6 12810V12805C671 12799.8 760.2 12876.7 792.6 12986.7C868.2 13246.7 711.9 13554.7 452.4 13638.2C401.8 13656.5 348.1 13661.9 295.2 13668.1C178.9 13687 135.2 13802.3 127.3 13907.3C118.1 14013.5 131.9 14120.2 148.5 14225.1C163.3 14329.4 192.3 14437.2 266.4 14515.7C339.5 14594.6 441.6 14635.3 532 14690.5L529.4 14694.8L529.2 14694.6Z"
                fill="#C80041" />
            <g id="digital">
                <g id="diagram">
                    <path id="Vector_14" opacity="0.5"
                        d="M672.765 11849.3H652.472V11863.6H672.765V11849.3Z" fill="#ADB2B6" />
                    <path id="Vector_15" opacity="0.5"
                        d="M579.765 11819.3H559.472V11833.6H579.765V11819.3Z" fill="#ADB2B6" />
                    <path id="Vector_16" opacity="0.5"
                        d="M620.448 11660.7H600.155V11674.9H620.448V11660.7Z" fill="#ADB2B6" />
                    <path id="Vector_17" opacity="0.5"
                        d="M672.765 11749.4H652.472V11763.7H672.765V11749.4Z" fill="#ADB2B6" />
                    <path id="Vector_18" d="M698.918 11782.3H621.795V11822.8H698.918V11782.3Z"
                        stroke="#ADB2B6" stroke-width="5" stroke-miterlimit="10" />
                    <path id="Vector_19"
                        d="M610.251 11731.3H653.305C658.23 11731.3 662.223 11735.2 662.223 11740.2V11782.3"
                        stroke="#ADB2B6" stroke-width="5" stroke-miterlimit="10" />
                    <path id="Vector_20" d="M662.222 11822.8V11887.8" stroke="#ADB2B6"
                        stroke-width="5" stroke-miterlimit="10" />
                    <path id="Vector_21"
                        d="M610.251 11731.3L570.27 11758.9L530.289 11731.3L570.27 11703.7L610.251 11731.3Z"
                        fill="#C80041" stroke="#C80041" stroke-width="5" stroke-miterlimit="10" />
                    <path id="Vector_22"
                        d="M732.326 11667.8L692.345 11695.4L652.364 11667.8L692.345 11640.2L732.326 11667.8Z"
                        fill="#C80041" stroke="#C80041" stroke-width="5" stroke-miterlimit="10" />
                    <path id="Vector_23" d="M698.918 11887.8H621.795V11928.2H698.918V11887.8Z"
                        fill="#C80041" />
                    <path id="Vector_24"
                        d="M660.357 12009C682.247 12009 699.992 11999.1 699.992 11986.8C699.992 11974.6 682.247 11964.7 660.357 11964.7C638.467 11964.7 620.722 11974.6 620.722 11986.8C620.722 11999.1 638.467 12009 660.357 12009Z"
                        fill="#C80041" />
                </g>
                <path id="diagram4-track"
                    d="M659.09 12001.3C703.047 12025.1 739.371 12071.1 733.341 12123.3C730.879 12148.6 721.934 12173.9 704.984 12193.4C651.064 12248.3 570.536 12263 500.51 12284.5C452.879 12297.7 405.582 12311.4 360.355 12330.1C292.905 12357.3 228.894 12401.5 197.404 12468.9C144.983 12578.6 146.74 12721.7 229.873 12815.9L226.132 12819.2C176.856 12762.2 154.008 12685.4 156.325 12610.8C157.501 12560.7 170.556 12511.5 190.766 12465.9C221.333 12395.8 286.095 12346.6 354.134 12315.9C399.499 12294.7 447.492 12280.1 495.386 12266.4C563.078 12243.3 687.915 12229.2 717.168 12157.3C746.744 12097.6 713.775 12033.8 656.911 12005.8C656.913 12005.8 659.09 12001.3 659.09 12001.3Z"
                    fill="#B7B7B7" />
                <path id="diagram4-move"
                    d="M659.09 12001.3C703.047 12025.1 739.371 12071.1 733.341 12123.3C730.879 12148.6 721.934 12173.9 704.984 12193.4C651.064 12248.3 570.536 12263 500.51 12284.5C452.879 12297.7 405.582 12311.4 360.355 12330.1C292.905 12357.3 228.894 12401.5 197.404 12468.9C144.983 12578.6 146.74 12721.7 229.873 12815.9L226.132 12819.2C176.856 12762.2 154.008 12685.4 156.325 12610.8C157.501 12560.7 170.556 12511.5 190.766 12465.9C221.333 12395.8 286.095 12346.6 354.134 12315.9C399.499 12294.7 447.492 12280.1 495.386 12266.4C563.078 12243.3 687.915 12229.2 717.168 12157.3C746.744 12097.6 713.775 12033.8 656.911 12005.8C656.913 12005.8 659.09 12001.3 659.09 12001.3Z"
                    fill="#C80041" />
                <path id="diagram3-track" d="M660.357 11928.2V11964.7" stroke="#B7B7B7"
                    stroke-width="5" stroke-miterlimit="10" />
                <path id="diagram3-move" d="M660.357 11928.2V11964.7" stroke="#C80041"
                    stroke-width="5" stroke-miterlimit="10" />
                <path id="diagram1-track"
                    d="M652.364 11667.8H579.188C574.263 11667.8 570.27 11671.8 570.27 11676.8V11703.7"
                    stroke="#B7B7B7" stroke-width="5" stroke-miterlimit="10" />
                <path id="diagram1-move"
                    d="M652.364 11667.8H579.188C574.263 11667.8 570.27 11671.8 570.27 11676.8V11703.7"
                    stroke="#C80041" stroke-width="5" stroke-miterlimit="10" />
                <path id="diagram2-track"
                    d="M570.11 11760.2V11903.4C570.11 11908.3 574.103 11912.3 579.028 11912.3H621.795"
                    stroke="#B7B7B7" stroke-width="5" stroke-miterlimit="10" />
                <path id="diagram2-move"
                    d="M570.11 11760.2V11903.4C570.11 11908.3 574.103 11912.3 579.028 11912.3H621.795"
                    stroke="#C80041" stroke-width="5" stroke-miterlimit="10" />
            </g>
            <g id="hands">
                <path id="hand-track"
                    d="M1055 7018.54C998.001 7066.54 984.529 7078.87 880.602 7113.14C752.001 7155.54 477.961 7144.99 463.802 7156.5C449.643 7168 505.315 7217.8 485.326 7220.57C475.331 7221.95 461.143 7225.96 448.159 7227.95C435.175 7229.95 423.394 7229.93 418.224 7223.27C407.875 7209.95 403.875 7195.51 392.583 7195.84C381.291 7196.17 369.19 7199.73 354.607 7203.26C340.024 7206.79 319.559 7214.91 312.517 7205.93C307.377 7200.24 301.388 7197.54 312.084 7195.15C322.779 7192.76 353.148 7180.72 361.23 7172.56C374.906 7158.76 429.841 7182.56 450.185 7175.85C470.53 7169.15 488.485 7164.19 503.952 7158.32C519.419 7152.45 571.78 7114.02 616.895 7105.18C662.01 7096.33 650.954 7184.41 600.081 7195.44C546.985 7206.94 522.208 7236.14 503.624 7239.68C486.055 7245.87 448.759 7228.18 448.759 7228.18C448.759 7228.18 456.723 7230.83 462.918 7233.49C477.077 7256.5 436.537 7245.22 443.45 7248.53C451.835 7252.63 455.839 7252.07 456.724 7258.27C457.857 7266.2 436.371 7264.46 422.212 7260.92C415.133 7261.81 437.256 7266.23 434.601 7273.31C431.946 7280.39 409.823 7269.77 406.283 7271.54C402.743 7273.31 410.708 7275.08 410.708 7279.51C410.708 7283.93 402.744 7284.82 382.39 7278.62C382.39 7278.62 351.418 7268.89 343.453 7266.23C335.488 7263.58 306.706 7254.46 296.552 7260.92C277.084 7273.31 303.631 7269.77 313.366 7270.66C323.101 7271.54 293.853 7289.86 307.172 7293.66C319.561 7297.2 336.375 7276.85 344.339 7280.39C352.303 7283.93 334.605 7294.55 343.454 7296.32C352.303 7298.09 397.434 7282.16 386.815 7280.39C370.139 7277.61 203.22 7230.27 146.003 7368.54"
                    stroke="#B7B7B7" stroke-width="5" stroke-miterlimit="10" />
                <path id="hand-move"
                    d="M1055 7018.54C998.001 7066.54 984.529 7078.87 880.602 7113.14C752.001 7155.54 477.961 7144.99 463.802 7156.5C449.643 7168 505.315 7217.8 485.326 7220.57C475.331 7221.95 461.143 7225.96 448.159 7227.95C435.175 7229.95 423.394 7229.93 418.224 7223.27C407.875 7209.95 403.875 7195.51 392.583 7195.84C381.291 7196.17 369.19 7199.73 354.607 7203.26C340.024 7206.79 319.559 7214.91 312.517 7205.93C307.377 7200.24 301.388 7197.54 312.084 7195.15C322.779 7192.76 353.148 7180.72 361.23 7172.56C374.906 7158.76 429.841 7182.56 450.185 7175.85C470.53 7169.15 488.485 7164.19 503.952 7158.32C519.419 7152.45 571.78 7114.02 616.895 7105.18C662.01 7096.33 650.954 7184.41 600.081 7195.44C546.985 7206.94 522.208 7236.14 503.624 7239.68C486.055 7245.87 448.759 7228.18 448.759 7228.18C448.759 7228.18 456.723 7230.83 462.918 7233.49C477.077 7256.5 436.537 7245.22 443.45 7248.53C451.835 7252.63 455.839 7252.07 456.724 7258.27C457.857 7266.2 436.371 7264.46 422.212 7260.92C415.133 7261.81 437.256 7266.23 434.601 7273.31C431.946 7280.39 409.823 7269.77 406.283 7271.54C402.743 7273.31 410.708 7275.08 410.708 7279.51C410.708 7283.93 402.744 7284.82 382.39 7278.62C382.39 7278.62 351.418 7268.89 343.453 7266.23C335.488 7263.58 306.706 7254.46 296.552 7260.92C277.084 7273.31 303.631 7269.77 313.366 7270.66C323.101 7271.54 293.853 7289.86 307.172 7293.66C319.561 7297.2 336.375 7276.85 344.339 7280.39C352.303 7283.93 334.605 7294.55 343.454 7296.32C352.303 7298.09 397.434 7282.16 386.815 7280.39C370.139 7277.61 203.22 7230.27 146.003 7368.54"
                    stroke="#C80041" stroke-width="5" stroke-miterlimit="10" />
                <path id="team-track"
                    d="M148.741 7368.82C111.411 7476.67 125.187 7595.64 171.15 7698.64C248.673 7885.51 474.105 7905.35 651.18 7913.68C879.458 7915.89 947.287 8075.04 754.199 8213.93C630.957 8305.29 482.603 8348.39 360.979 8440.94C301.441 8485.98 248.03 8541.14 212.824 8606.49C155.085 8724.1 185.613 8824.22 314.869 8865.44C385.586 8891.22 459.648 8907.52 532.026 8929.02C614.684 8956.14 749.797 8987.53 754.574 9094.01C753.128 9191.1 610.609 9236.49 536.52 9268.7C465.946 9296.36 394.389 9321 327.263 9354.76C263.995 9387.4 188.527 9433.73 187 9513.02L182 9513.07C179.993 9431 257.23 9378.62 321.599 9343.87C422.417 9290.4 531.944 9258.44 632.925 9206.85C665.471 9189.4 698.16 9169.48 719.126 9141.28C754.229 9096.34 725.74 9036.54 680.936 9010.62C551.154 8933.08 390.038 8928.17 255.777 8858.11C155.899 8804.24 151.822 8691.72 200.563 8600.24C294.794 8428.09 482.964 8347.35 645.967 8255.98C708.419 8218.57 773.816 8176.44 815.661 8116.7C861.756 8049.5 834.446 7986.92 756.375 7962.23C722.403 7948.73 685.855 7948.15 649.24 7945.7C573.742 7941.25 496.676 7933.88 422.333 7912.94C311.561 7883.91 202.508 7813.96 162.52 7702.19C119.166 7596.67 107.855 7476.55 143.987 7367.27L148.741 7368.82Z"
                    fill="#B7B7B7" />
                <path id="team-move"
                    d="M148.741 7368.82C111.411 7476.67 125.187 7595.64 171.15 7698.64C248.673 7885.51 474.105 7905.35 651.18 7913.68C879.458 7915.89 947.287 8075.04 754.199 8213.93C630.957 8305.29 482.603 8348.39 360.979 8440.94C301.441 8485.98 248.03 8541.14 212.824 8606.49C155.085 8724.1 185.613 8824.22 314.869 8865.44C385.586 8891.22 459.648 8907.52 532.026 8929.02C614.684 8956.14 749.797 8987.53 754.574 9094.01C753.128 9191.1 610.609 9236.49 536.52 9268.7C465.946 9296.36 394.389 9321 327.263 9354.76C263.995 9387.4 188.527 9433.73 187 9513.02L182 9513.07C179.993 9431 257.23 9378.62 321.599 9343.87C422.417 9290.4 531.944 9258.44 632.925 9206.85C665.471 9189.4 698.16 9169.48 719.126 9141.28C754.229 9096.34 725.74 9036.54 680.936 9010.62C551.154 8933.08 390.038 8928.17 255.777 8858.11C155.899 8804.24 151.822 8691.72 200.563 8600.24C294.794 8428.09 482.964 8347.35 645.967 8255.98C708.419 8218.57 773.816 8176.44 815.661 8116.7C861.756 8049.5 834.446 7986.92 756.375 7962.23C722.403 7948.73 685.855 7948.15 649.24 7945.7C573.742 7941.25 496.676 7933.88 422.333 7912.94C311.561 7883.91 202.508 7813.96 162.52 7702.19C119.166 7596.67 107.855 7476.55 143.987 7367.27L148.741 7368.82Z"
                    fill="#C80041" />
            </g>
            <g id="spring">
                <path id="spring-move"
                    d="M-53.436 6754.74C-41.402 6759.72 -30.263 6765.81 -20.183 6773.07C108.523 6865.86 212.504 6780.72 293.029 6682.05C359.833 6600.19 445.01 6575.49 512.376 6647.98C579.754 6720.47 599.886 6804.48 682.794 6794.54C789.688 6781.74 860.836 6578.89 974.732 6578.89"
                    stroke="#C80041" stroke-width="8" stroke-miterlimit="10" />
                <path id="spring1-track"
                    d="M-55.499 6663.04C89.501 6508.04 216.49 6667.89 260.828 6727.15C305.166 6786.41 415.855 6879.78 507.75 6779.87C591.897 6688.38 587.103 6553.95 701.932 6587.56C811.01 6619.48 864.513 6836.97 970.997 6814.41"
                    stroke="white" stroke-width="8" stroke-linecap="round" />
            </g>
            <g id="dna">
                <path id="Vector_25" d="M844.905 6655.32V6751.89" stroke="#70797F" stroke-width="10"
                    stroke-linecap="round" />
                <path id="Vector_26" d="M429.147 6799.94V6632.01" stroke="#70797F" stroke-width="10"
                    stroke-linecap="round" />
                <path id="Vector_27" d="M395.636 6640.91V6773.34" stroke="#70797F" stroke-width="10"
                    stroke-linecap="round" />
                <path id="Vector_28" d="M362.135 6661.38V6757.94" stroke="#70797F" stroke-width="10"
                    stroke-linecap="round" />
                <path id="Vector_29" d="M328.623 6687.62V6731.87" stroke="#70797F" stroke-width="10"
                    stroke-linecap="round" />
                <path id="Vector_30" d="M462.648 6775.18V6642.75" stroke="#70797F" stroke-width="10"
                    stroke-linecap="round" />
                <path id="Vector_31" d="M496.161 6750.66V6654.09" stroke="#70797F" stroke-width="10"
                    stroke-linecap="round" />
                <path id="Vector_32" d="M529.662 6731.87V6687.62" stroke="#70797F" stroke-width="10"
                    stroke-linecap="round" />
                <path id="Vector_33" d="M670.527 6740.14V6585.71" stroke="#70797F" stroke-width="10"
                    stroke-linecap="round" />
                <path id="Vector_34" d="M704.04 6740.94V6608.51" stroke="#70797F" stroke-width="10"
                    stroke-linecap="round" />
                <path id="Vector_35" d="M737.552 6722.53V6625.95" stroke="#70797F" stroke-width="10"
                    stroke-linecap="round" />
                <path id="Vector_36" d="M771.052 6694.89V6650.63" stroke="#70797F" stroke-width="10"
                    stroke-linecap="round" />
                <path id="Vector_37" d="M637.025 6601.93V6734.36" stroke="#70797F" stroke-width="10"
                    stroke-linecap="round" />
                <path id="Vector_38" d="M603.514 6626.44V6723.02" stroke="#70797F" stroke-width="10"
                    stroke-linecap="round" />
                <path id="Vector_39" d="M570.013 6648.63V6692.88" stroke="#70797F" stroke-width="10"
                    stroke-linecap="round" />
                <path id="Vector_40" d="M811.393 6686.98V6731.22" stroke="#70797F" stroke-width="10"
                    stroke-linecap="round" />
                <path id="Vector_41" d="M189.82 6758.29V6631.9" stroke="#70797F" stroke-width="10"
                    stroke-linecap="round" />
                <path id="Vector_42" d="M223.332 6747.03V6614.61" stroke="#70797F" stroke-width="10"
                    stroke-linecap="round" />
                <path id="Vector_43" d="M256.844 6722.53V6625.95" stroke="#70797F" stroke-width="10"
                    stroke-linecap="round" />
                <path id="Vector_44" d="M290.345 6684.11V6639.86" stroke="#70797F" stroke-width="10"
                    stroke-linecap="round" />
                <path id="Vector_45" d="M156.32 6636.15V6768.58" stroke="#70797F" stroke-width="10"
                    stroke-linecap="round" />
                <path id="Vector_46" d="M122.807 6662.93V6759.49" stroke="#70797F" stroke-width="10"
                    stroke-linecap="round" />
                <path id="Vector_47" d="M89.3076 6673.05V6762.5" stroke="#70797F" stroke-width="10"
                    stroke-linecap="round" />
                <path id="Vector_48"
                    d="M121.277 6697.7C121.277 6682.81 109.196 6670.75 94.2935 6670.75C79.3916 6670.75 67.3105 6682.81 67.3105 6697.7C67.3105 6712.58 79.3906 6724.65 94.2935 6724.65C109.197 6724.65 121.277 6712.58 121.277 6697.7Z"
                    fill="#C80041" />
                <path id="Vector_49"
                    d="M288.814 6614.61C288.814 6599.72 276.734 6587.66 261.831 6587.66C246.928 6587.66 234.848 6599.72 234.848 6614.61C234.848 6629.49 246.929 6641.56 261.831 6641.56C276.733 6641.56 288.814 6629.49 288.814 6614.61Z"
                    fill="#70797F" />
                <path id="Vector_50"
                    d="M584.5 6796.87C584.5 6785.6 575.35 6776.46 564.063 6776.46C552.776 6776.46 543.626 6785.6 543.626 6796.87C543.626 6808.15 552.776 6817.29 564.063 6817.29C575.35 6817.29 584.5 6808.15 584.5 6796.87Z"
                    fill="#C80041" />
                <path id="Vector_51"
                    d="M838.695 6790.89C838.695 6776 826.613 6763.94 811.711 6763.94C796.809 6763.94 784.729 6776 784.729 6790.89C784.729 6805.77 796.808 6817.84 811.711 6817.84C826.614 6817.84 838.695 6805.77 838.695 6790.89Z"
                    fill="#70797F" />
                <path id="Vector_52"
                    d="M186.458 6857.04C199.373 6857.04 209.843 6846.57 209.843 6833.66C209.843 6820.74 199.373 6810.27 186.458 6810.27C173.542 6810.27 163.073 6820.74 163.073 6833.66C163.073 6846.57 173.542 6857.04 186.458 6857.04Z"
                    fill="#70797F" />
                <path id="Vector_53"
                    d="M755.787 6567.04C766.122 6567.04 774.501 6558.66 774.501 6548.33C774.501 6537.99 766.122 6529.62 755.787 6529.62C745.452 6529.62 737.073 6537.99 737.073 6548.33C737.073 6558.66 745.452 6567.04 755.787 6567.04Z"
                    fill="#70797F" />
                <g id="Studies">
                    <g id="Clip path group">
                        <g id="Mask group">
                            <mask id="mask0_0_1" style="mask-type:luminance"
                                maskUnits="userSpaceOnUse" x="243" y="6555" width="451" height="394">
                                <g id="Group_2">
                                    <g id="clippath">
                                        <path id="Vector_54"
                                            d="M693.5 6555.04H243.5V6948.04H693.5V6555.04Z"
                                            fill="white" />
                                    </g>
                                </g>
                            </mask>
                            <g mask="url(#mask0_0_1)">
                                <g id="Group_3">
                                    <g id="Group_2_2">
                                        <g id="Group_3_2">
                                            <g id="dna-streaming">
                                                <path id="Vector_55"
                                                    d="M482.062 6748.23C517.685 6748.23 546.562 6719.35 546.562 6683.73C546.562 6648.11 517.685 6619.23 482.062 6619.23C446.44 6619.23 417.562 6648.11 417.562 6683.73C417.562 6719.35 446.44 6748.23 482.062 6748.23Z"
                                                    fill="#1F1F1F" />
                                                <text id="Streaming" fill="white"
                                                    xml:space="preserve" style="white-space: pre"
                                                    font-family="Inter" font-size="20"
                                                    letter-spacing="0em"><tspan x="433" y="6673.27">Streaming</tspan></text>
                                                <text id="Study" fill="white" xml:space="preserve"
                                                    style="white-space: pre" font-family="Inter"
                                                    font-size="20" letter-spacing="0em"><tspan x="453" y="6698.27">Study</tspan></text>
                                                <text id="&#226;&#134;&#146;" fill="white"
                                                    xml:space="preserve" style="white-space: pre"
                                                    font-family="Inter" font-size="20"
                                                    letter-spacing="0em"><tspan x="468" y="6723.27">&#x2192;</tspan></text>
                                            </g>
                                            <g id="dna-global">
                                                <path id="Vector_56"
                                                    d="M314.562 6694.23C350.185 6694.23 379.062 6665.35 379.062 6629.73C379.062 6594.11 350.185 6565.23 314.562 6565.23C278.94 6565.23 250.062 6594.11 250.062 6629.73C250.062 6665.35 278.94 6694.23 314.562 6694.23Z"
                                                    fill="#1F1F1F" />
                                                <text id="Global" fill="white" xml:space="preserve"
                                                    style="white-space: pre" font-family="Inter"
                                                    font-size="20" letter-spacing="0em"><tspan x="283" y="6608.27">Global</tspan></text>
                                                <text id="Pricing" fill="white" xml:space="preserve"
                                                    style="white-space: pre" font-family="Inter"
                                                    font-size="20" letter-spacing="0em"><tspan x="283" y="6631.27">Pricing</tspan></text>
                                                <text id="Study_2" fill="white" xml:space="preserve"
                                                    style="white-space: pre" font-family="Inter"
                                                    font-size="20" letter-spacing="0em"><tspan x="288" y="6653.27">Study</tspan></text>
                                                <text id="&#226;&#134;&#146;_2" fill="white"
                                                    xml:space="preserve" style="white-space: pre"
                                                    font-family="Inter" font-size="20"
                                                    letter-spacing="0em"><tspan x="303" y="6678.27">&#x2192;</tspan></text>
                                            </g>
                                            <g id="dna-health">
                                                <path id="Vector_57"
                                                    d="M623.062 6770.73C658.685 6770.73 687.562 6741.85 687.562 6706.23C687.562 6670.61 658.685 6641.73 623.062 6641.73C587.44 6641.73 558.562 6670.61 558.562 6706.23C558.562 6741.85 587.44 6770.73 623.062 6770.73Z"
                                                    fill="#1F1F1F" />
                                                <text id="Better" fill="white" xml:space="preserve"
                                                    style="white-space: pre" font-family="Inter"
                                                    font-size="20" letter-spacing="0em"><tspan x="598" y="6688.27">Better</tspan></text>
                                                <text id="Health" fill="white" xml:space="preserve"
                                                    style="white-space: pre" font-family="Inter"
                                                    font-size="20" letter-spacing="0em"><tspan x="598" y="6713.27">Health</tspan></text>
                                                <text id="Study_3" fill="white" xml:space="preserve"
                                                    style="white-space: pre" font-family="Inter"
                                                    font-size="20" letter-spacing="0em"><tspan x="600" y="6735.27">Study</tspan></text>
                                                <text id="&#226;&#134;&#146;_3" fill="white"
                                                    xml:space="preserve" style="white-space: pre"
                                                    font-family="Inter" font-size="20"
                                                    letter-spacing="0em"><tspan x="613" y="6755.27">&#x2192;</tspan></text>
                                            </g>
                                            <g id="dna-b2b">
                                                <path id="Vector_58"
                                                    d="M322.062 6883.73C357.685 6883.73 386.562 6854.85 386.562 6819.23C386.562 6783.61 357.685 6754.73 322.062 6754.73C286.44 6754.73 257.562 6783.61 257.562 6819.23C257.562 6854.85 286.44 6883.73 322.062 6883.73Z"
                                                    fill="#1F1F1F" />
                                                <text id="B2B" fill="white" xml:space="preserve"
                                                    style="white-space: pre" font-family="Inter"
                                                    font-size="20" letter-spacing="0em"><tspan x="303" y="6798.27">B2B</tspan></text>
                                                <text id="Sales" fill="white" xml:space="preserve"
                                                    style="white-space: pre" font-family="Inter"
                                                    font-size="20" letter-spacing="0em"><tspan x="298" y="6820.27">Sales</tspan></text>
                                                <text id="Study_4" fill="white" xml:space="preserve"
                                                    style="white-space: pre" font-family="Inter"
                                                    font-size="20" letter-spacing="0em"><tspan x="298" y="6843.27">Study</tspan></text>
                                                <text id="&#226;&#134;&#146;_4" fill="white"
                                                    xml:space="preserve" style="white-space: pre"
                                                    font-family="Inter" font-size="20"
                                                    letter-spacing="0em"><tspan x="310" y="6866.27">&#x2192;</tspan></text>
                                            </g>
                                            <g id="dna-automotive">
                                                <path id="Vector_59"
                                                    d="M522.062 6944.73C557.685 6944.73 586.562 6915.85 586.562 6880.23C586.562 6844.61 557.685 6815.73 522.062 6815.73C486.44 6815.73 457.562 6844.61 457.562 6880.23C457.562 6915.85 486.44 6944.73 522.062 6944.73Z"
                                                    fill="#1F1F1F" />
                                                <text id="utomotive" fill="white"
                                                    xml:space="preserve" style="white-space: pre"
                                                    font-family="Inter" font-size="20"
                                                    letter-spacing="0em"><tspan x="468" y="6869.27">utomotive</tspan></text>
                                                <text id="Study_5" fill="white" xml:space="preserve"
                                                    style="white-space: pre" font-family="Inter"
                                                    font-size="20" letter-spacing="0em"><tspan x="493" y="6898.27">Study</tspan></text>
                                                <text id="&#226;&#134;&#146;_5" fill="white"
                                                    xml:space="preserve" style="white-space: pre"
                                                    font-family="Inter" font-size="20"
                                                    letter-spacing="0em"><tspan x="513" y="6923.27">&#x2192;</tspan></text>
                                            </g>
                                        </g>
                                    </g>
                                </g>
                            </g>
                        </g>
                    </g>
                </g>
            </g>
            <g id="map-group">
                <path id="map"
                    d="M458.501 5490.04C568.958 5490.04 658.501 5400.5 658.501 5290.04C658.501 5179.59 568.958 5090.04 458.501 5090.04C348.044 5090.04 258.501 5179.59 258.501 5290.04C258.501 5400.5 348.044 5490.04 458.501 5490.04Z"
                    fill="#D9D9D9" />
                <path id="plane-track"
                    d="M295.001 5068.54C344.001 5105.54 438.17 5186.22 509.001 5167.54C517.33 5165.33 537.001 5156.54 527.545 5144.08C488.583 5092.72 400.486 5196.76 425.029 5243.35C440.527 5266.95 474.91 5263.09 495.713 5279.27C561.297 5352.67 335.648 5384.84 321.75 5327.22C319.971 5321.56 323.203 5305.15 336 5300.54C386 5282.54 406.249 5340.57 415.913 5380.51C432.389 5448.58 574.428 5477.85 619 5560.54C695 5701.54 538 5797.54 275 5872.54C28.37 5942.87 -57.709 6244.11 -79 6273.54"
                    stroke="#B7B7B7" stroke-width="5" stroke-miterlimit="10" />
                <path id="plane-move"
                    d="M295.001 5068.54C344.001 5105.54 438.17 5186.22 509.001 5167.54C517.33 5165.33 537.001 5156.54 527.545 5144.08C488.583 5092.72 400.486 5196.76 425.029 5243.35C440.527 5266.95 474.91 5263.09 495.713 5279.27C561.297 5352.67 335.648 5384.84 321.75 5327.22C319.971 5321.56 323.203 5305.15 336 5300.54C386 5282.54 406.249 5340.57 415.913 5380.51C432.389 5448.58 574.428 5477.85 619 5560.54C695 5701.54 538 5797.54 275 5872.54C28.37 5942.87 -57.709 6244.11 -79 6273.54"
                    stroke="#C80041" stroke-width="5" stroke-miterlimit="10" />
                <g id="tags">
                    <g id="tag-1985">
                        <path id="Vector_60"
                            d="M539.882 5145.19H412.882C411.225 5145.19 409.882 5146.53 409.882 5148.19V5178.19C409.882 5179.85 411.225 5181.19 412.882 5181.19H539.882C541.539 5181.19 542.882 5179.85 542.882 5178.19V5148.19C542.882 5146.53 541.539 5145.19 539.882 5145.19Z"
                            fill="#70797F" />
                        <text id="1985 - Europe" fill="white" xml:space="preserve"
                            style="white-space: pre" font-family="Inter" font-size="16"
                            letter-spacing="0em"><tspan x="420.616" y="5162.51">1985 - Europe </tspan></text>
                    </g>
                    <g id="tag-1996">
                        <path id="Vector_61"
                            d="M476.882 5205.19H290.882C289.225 5205.19 287.882 5206.53 287.882 5208.19V5238.19C287.882 5239.85 289.225 5241.19 290.882 5241.19H476.882C478.539 5241.19 479.882 5239.85 479.882 5238.19V5208.19C479.882 5206.53 478.539 5205.19 476.882 5205.19Z"
                            fill="#70797F" />
                        <text id="1996 - North America" fill="white" xml:space="preserve"
                            style="white-space: pre" font-family="Inter" font-size="16"
                            letter-spacing="0em"><tspan x="302.116" y="5222.51">1996 - North America </tspan></text>
                    </g>
                    <g id="tag-2012">
                        <path id="Vector_62"
                            d="M564.882 5264.19H400.882C399.225 5264.19 397.882 5265.53 397.882 5267.19V5297.19C397.882 5298.85 399.225 5300.19 400.882 5300.19H564.882C566.539 5300.19 567.882 5298.85 567.882 5297.19V5267.19C567.882 5265.53 566.539 5264.19 564.882 5264.19Z"
                            fill="#70797F" />
                        <text id="2012 - Middle East" fill="white" xml:space="preserve"
                            style="white-space: pre" font-family="Inter" font-size="16"
                            letter-spacing="0em"><tspan x="412.163" y="5281.51">2012 - Middle East </tspan></text>
                    </g>
                    <g id="tag-2001">
                        <path id="Vector_63"
                            d="M595.882 5323.19H429.882C428.225 5323.19 426.882 5324.53 426.882 5326.19V5356.19C426.882 5357.85 428.225 5359.19 429.882 5359.19H595.882C597.539 5359.19 598.882 5357.85 598.882 5356.19V5326.19C598.882 5324.53 597.539 5323.19 595.882 5323.19Z"
                            fill="#70797F" />
                        <text id="2001 - Asia-Pacific" fill="white" xml:space="preserve"
                            style="white-space: pre" font-family="Inter" font-size="16"
                            letter-spacing="0em"><tspan x="441.265" y="5340.51">2001 - Asia-Pacific </tspan></text>
                    </g>
                    <g id="tag-2013">
                        <path id="Vector_64"
                            d="M513.882 5382.19H326.882C325.225 5382.19 323.882 5383.53 323.882 5385.19V5415.19C323.882 5416.85 325.225 5418.19 326.882 5418.19H513.882C515.539 5418.19 516.882 5416.85 516.882 5415.19V5385.19C516.882 5383.53 515.539 5382.19 513.882 5382.19Z"
                            fill="#70797F" />
                        <text id="2013 - South America" fill="white" xml:space="preserve"
                            style="white-space: pre" font-family="Inter" font-size="16"
                            letter-spacing="0em"><tspan x="338.179" y="5399.51">2013 - South America </tspan></text>
                    </g>
                </g>
                <g id="plane">
                    <path id="Vector_80"
                        d="M352.555 5111.07L305.519 5099.89L315.179 5090.13L321.055 5082.09L327.324 5069.86L352.655 5111.07H352.555Z"
                        fill="#C80041" />
                    <path id="Vector_81"
                        d="M352.555 5111.07L315.179 5090.13L314.774 5083.7L321.055 5082.09L352.555 5111.07Z"
                        fill="#E8526B" />
                </g>
            </g>
            <g id="sun-group">
                <g id="sun-mask-group">
                    <g id="Mask group_2">
                        <mask id="mask1_0_1" style="mask-type:alpha" maskUnits="userSpaceOnUse"
                            x="460" y="3401" width="253" height="209">
                            <g id="Group_4">
                                <path id="sun-mask"
                                    d="M712.501 3401.04H460.501V3609.04H712.501V3401.04Z"
                                    fill="#D9D9D9" />
                            </g>
                        </mask>
                        <g mask="url(#mask1_0_1)">
                            <g id="Group_5">
                                <g id="sun" style="mix-blend-mode:multiply">
                                    <path id="Vector_65"
                                        d="M680.584 3609.45C700.482 3587.55 712.609 3558.46 712.609 3526.54C712.609 3458.41 657.384 3403.19 589.26 3403.19C521.136 3403.19 465.911 3458.41 465.911 3526.54C465.911 3558.46 478.038 3587.55 497.936 3609.45H680.584Z"
                                        fill="#FBB315" />
                                </g>
                            </g>
                        </g>
                    </g>
                </g>
                <g id="Sun white lines">
                    <path id="sun-light1"
                        d="M519.584 3340.04C519.122 3407.6 518.767 3543.03 518.994 3610.53C519.031 3611.2 518.967 3611.13 518.515 3611.46C511.138 3617.4 500.392 3626 501.587 3636.26C502.689 3641.14 508.049 3643.52 512.952 3645.4C538.803 3654.49 566.064 3656.46 592.466 3664.58C602.653 3667.74 598.604 3672.32 593.909 3678.33L583.769 3691.16C521.282 3769.62 526.328 3880.61 560.349 3970.15C602.751 4071.01 689.436 4145.13 776.266 4207.93C847.083 4257.54 923.574 4301.48 1002.79 4335.55L997.185 4349.46C956.444 4331.48 918.287 4310.38 880.383 4288.17C753.501 4210.11 614.435 4114.19 554.878 3972.31C521.322 3880.9 518.266 3768.92 581.595 3689.49L591.792 3676.66C593.409 3674.56 595.25 3672.33 596.139 3670.25C597.24 3669.45 593.781 3667.83 591.558 3667.06C565.816 3659.06 537.843 3656.83 512.09 3647.66C506.875 3645.65 500.695 3642.91 499.276 3636.8C497.954 3624.53 508.945 3616.5 517.187 3609.6L516.711 3610.52C517.086 3543.24 517.007 3407.34 516.674 3340.04H519.584Z"
                        fill="white" />
                    <path id="sun-light2"
                        d="M532.41 3341.32C532.011 3408.54 531.797 3543.36 532.1 3610.53V3611.17C527.891 3613.9 523.832 3617.17 520.65 3621.02C512.568 3630.3 517.521 3638.05 528.219 3641.2C551.705 3648.97 576.412 3651.9 600.633 3657.15C608.094 3659.01 615.634 3659.78 622.481 3663.8C625.607 3665.8 622.786 3670 621.188 3672.17C543.15 3760.99 548.513 3876.39 608.456 3973.38C653.188 4038.33 719.262 4085.7 783.629 4129.99C849.23 4173.7 918.558 4212.78 989.428 4247.01L981.09 4264.09C910.084 4227.11 842.328 4185.35 776.925 4139.76C712.41 4093.4 647.404 4044.03 602.618 3977.15C542.672 3876.74 539.027 3761.06 618.85 3670.52C620.132 3668.74 621.897 3665.88 620.745 3666.05C614.714 3662.62 606.9 3661.52 600.06 3659.85C575.903 3654.54 550.971 3651.5 527.343 3643.58C522.842 3641.89 517.3 3639.7 514.969 3634.37C511.242 3623.16 522.496 3615.11 530.265 3609.51L529.7 3610.53C530.026 3543.55 529.834 3408.32 529.439 3341.32H532.41Z"
                        fill="white" />
                    <path id="sun-light3"
                        d="M547.263 3341.32C546.413 3418.73 547.06 3531.86 547.256 3610.52L547.259 3611.31C543.284 3613.54 539.349 3616.42 536.638 3620.01C526.905 3634.29 549.379 3638.63 559.366 3640.96C585.898 3647.23 613.226 3648.96 639.636 3656.31C641.521 3657.11 643.415 3657.54 644.836 3659.41C646.277 3663.06 643.22 3666.01 642.037 3668.87C527.963 3844.08 653.225 3982.78 806.575 4069.67C868.519 4105.04 934.633 4136.49 1002.51 4158.03L997.464 4176.34C927.826 4152.08 863.169 4118.08 800.208 4080.3C654.183 3993.5 523.874 3849.92 632.15 3678.85C634.305 3675.34 640.693 3665.26 641.96 3661.54C643.003 3661.3 640.473 3659.98 638.564 3659.35C608.212 3650.77 575.755 3649.72 545.47 3640.15C541.315 3638.64 536.268 3636.92 533.44 3632.55C526.966 3623.17 537.472 3613.55 545.258 3609.33L544.544 3610.53L544.689 3475.93C544.89 3431.06 544.21 3386.19 544.014 3341.32H547.263Z"
                        fill="white" />
                    <path id="sun-light4"
                        d="M559.918 3341.32C558.933 3419.05 559.583 3532.25 559.61 3611.22C552.531 3615.36 548.771 3623.77 555.681 3630.11C561.241 3635.26 570.36 3636.25 577.716 3638.08C601.769 3642.93 626.462 3644.68 650.462 3650.36C655.954 3651.95 666.382 3654.06 665.149 3662.17C661.197 3680.47 652.025 3697 647.744 3714.89C638.827 3746.08 637.283 3779.3 644.541 3810.78C659.029 3874.4 703.787 3926.68 752.803 3967.64C778.175 3987.12 807.932 4001.79 836.649 4016.17C894.966 4043.8 955.956 4069.75 1018.07 4086.31L1013.31 4104.71C949.406 4085.39 890.228 4057.16 831.087 4027.23C801.766 4011.6 772.574 3996.41 746.439 3975.31C697.187 3931.83 652.707 3877.7 638.652 3812.05C627.03 3762.68 641.083 3712.63 660.239 3667.44C661.277 3663.8 662.782 3659.32 660.231 3657.94C630.8 3644.77 595.999 3647.36 565.114 3637.84C550.193 3634.74 542.444 3619.09 557.639 3609.42C555.717 3615.12 558.052 3474.86 557.355 3475.92C557.636 3431.06 557.139 3386.19 556.948 3341.32H559.918Z"
                        fill="white" />
                    <path id="sun-light5"
                        d="M587.558 3341.33L586.829 3610.53V3611.24C584.224 3612.83 581.643 3615.46 581.119 3618.26C580.623 3628.49 593.977 3628.16 601.94 3629.13C639.68 3632.13 720.099 3626.62 710.86 3684.75C707.87 3702.8 704.167 3723.35 705.736 3741.41C712.453 3820.04 787.847 3867.37 851.466 3901.24C896.811 3924.53 944.673 3943.05 993.168 3959.44L986.188 3979.25C937.521 3961.18 889.45 3940.96 843.711 3915.75C766.168 3874.25 675.552 3801.47 699.394 3702.48C699.392 3702.48 703.014 3683.52 703.014 3683.52C713.154 3632.68 634.426 3637.27 601.594 3632.9C592.497 3631.86 576.647 3630.56 578.293 3617.66C579.249 3613.85 581.943 3611.33 584.868 3609.42L584.241 3610.52L584.97 3341.32L587.558 3341.33Z"
                        fill="white" />
                    <path id="sun-light6"
                        d="M600.976 3341.33L600.462 3610.53C600.516 3611.49 600.45 3611.27 599.762 3611.67C596.893 3613.25 593.912 3616.3 595.409 3618.76C600.866 3626.04 617.312 3622.91 626.064 3624.14C662.109 3625.73 708.877 3626.03 729.659 3661.29C740.528 3682.37 726.92 3707.25 730.199 3728.98C738.704 3824.67 893.604 3869.88 971.787 3895.68C1028.89 3912.9 1087.08 3926.66 1145.55 3938.93L1141.45 3957.49C1082.9 3943.78 1024.62 3928.59 967.327 3909.87C888.398 3881.86 783.049 3848.08 735.633 3773.97C727.815 3760.5 723.149 3744.98 722.556 3729.41C720.386 3708.47 730.304 3688.83 726.375 3668.95C704.664 3620.75 640.125 3633.43 597.555 3624.46C589.752 3620.87 591.436 3612.6 598.588 3609.4C598.652 3609.33 597.897 3610.54 597.907 3610.52L598.421 3341.32L600.976 3341.33Z"
                        fill="white" />
                </g>
                <path id="sun-track" d="M572.465 3352.28V3609.45" stroke="#B7B7B7" stroke-width="5"
                    stroke-miterlimit="10" />
                <path id="sun-move" d="M572.465 3352.28V3609.45" stroke="#C80041" stroke-width="5"
                    stroke-miterlimit="10" />
                <path id="sun1-track"
                    d="M308.12 5081.09C229.137 5025.07 151.468 4948.2 136.92 4848.04C127.296 4745.57 194.071 4652.08 270.811 4591.97C373.776 4509.04 497.55 4462.35 617.805 4412.03C672.422 4386.27 722.471 4337.92 713.944 4273.48C711.185 4241.09 692.013 4210.03 696.716 4176.18C702.582 4114.63 753.173 4072.57 795.05 4033.12C828.261 4004.21 830.237 3968.49 790.281 3945.08C756.896 3922.58 724.656 3896.92 700.428 3863.75C663.417 3814.95 652.815 3745.76 677.668 3689.49C680.429 3681.13 685.629 3671.32 683.493 3663.07C680.658 3655.72 670.761 3651.35 661.852 3648.59C643.214 3642.86 623.25 3642.29 603.297 3640.15C589.515 3637.31 567.461 3638.58 562.608 3621.34C562.133 3615.07 567.06 3611.02 571.336 3607.51L570.509 3609.13V3601.78H574.509V3609.13V3610.08L573.681 3610.76C550.931 3628.68 590.666 3634.54 603.804 3635.18C628.239 3637.53 655.221 3636.64 678.159 3648.5C682.735 3651.15 687.542 3654.82 689.837 3660.72C693.183 3672.2 687.658 3681.82 684.579 3692.01C661.882 3746.77 672.958 3811.12 709.193 3857.2C732.956 3888.16 764.721 3912.3 797.813 3933.42C845.065 3959.43 847.615 4008.34 806.782 4045.25C769.76 4082.1 721.581 4123.57 717.551 4177.89C714.414 4210.42 733.972 4238.44 736.53 4271.02C748.042 4345.02 690.311 4404.62 628.555 4433.46C570.305 4460.62 506.278 4481.01 448.813 4509.67C336.69 4564.83 215.642 4634.04 166.074 4754.54C111.09 4881.79 213.758 5004.34 310.884 5077L308.12 5081.09Z"
                    fill="#B7B7B7" />
                <path id="sun1-move"
                    d="M308.12 5081.09C229.137 5025.07 151.468 4948.2 136.92 4848.04C127.296 4745.57 194.071 4652.08 270.811 4591.97C373.776 4509.04 497.55 4462.35 617.805 4412.03C672.422 4386.27 722.471 4337.92 713.944 4273.48C711.185 4241.09 692.013 4210.03 696.716 4176.18C702.582 4114.63 753.173 4072.57 795.05 4033.12C828.261 4004.21 830.237 3968.49 790.281 3945.08C756.896 3922.58 724.656 3896.92 700.428 3863.75C663.417 3814.95 652.815 3745.76 677.668 3689.49C680.429 3681.13 685.629 3671.32 683.493 3663.07C680.658 3655.72 670.761 3651.35 661.852 3648.59C643.214 3642.86 623.25 3642.29 603.297 3640.15C589.515 3637.31 567.461 3638.58 562.608 3621.34C562.133 3615.07 567.06 3611.02 571.336 3607.51L570.509 3609.13V3601.78H574.509V3609.13V3610.08L573.681 3610.76C550.931 3628.68 590.666 3634.54 603.804 3635.18C628.239 3637.53 655.221 3636.64 678.159 3648.5C682.735 3651.15 687.542 3654.82 689.837 3660.72C693.183 3672.2 687.658 3681.82 684.579 3692.01C661.882 3746.77 672.958 3811.12 709.193 3857.2C732.956 3888.16 764.721 3912.3 797.813 3933.42C845.065 3959.43 847.615 4008.34 806.782 4045.25C769.76 4082.1 721.581 4123.57 717.551 4177.89C714.414 4210.42 733.972 4238.44 736.53 4271.02C748.042 4345.02 690.311 4404.62 628.555 4433.46C570.305 4460.62 506.278 4481.01 448.813 4509.67C336.69 4564.83 215.642 4634.04 166.074 4754.54C111.09 4881.79 213.758 5004.34 310.884 5077L308.12 5081.09Z"
                    fill="#C80041" />
            </g>
            <g id="pen-track">
                <path id="Vector_66"
                    d="M597 1963.8C602.1 1964.3 606.6 1960.5 607.1 1955.4C607.6 1950.3 603.8 1945.8 598.7 1945.3C593.6 1944.8 589.1 1948.6 588.6 1953.7C588.1 1958.8 591.9 1963.3 597 1963.8Z"
                    stroke="#C80041" stroke-width="5" stroke-miterlimit="3.13" />
                <path id="Vector_67" d="M251 3246C421 3304 572 3213.9 572 3354" stroke="#C80041"
                    stroke-width="5" stroke-miterlimit="10" />
                <path id="Vector_68"
                    d="M250.5 3247.4C91.9998 3192.1 42.5998 3005.3 34.0998 2854.2C29.4998 2775.3 33.4998 2692.5 72.7998 2621.8C128.3 2518.9 233.2 2425.9 355.9 2426.1C395.7 2427.4 430.7 2451.1 471.2 2446.4C620.3 2436.6 769.6 2275.8 725.2 2123.3C709.5 2066.8 664.1 2019.5 604.3 2013C573.3 2006.8 582.4 1983.8 591.8 1963.1L596.2 1965C574.4 2011.2 599 2004.3 634.7 2013.9C683.8 2028.7 718.6 2073.3 733.2 2120.9C780.3 2279.3 627.1 2446.7 471.6 2457.6C441.6 2460.5 411.3 2450.7 383.4 2441.7C336.3 2430.8 287.2 2443.3 244.3 2464.6C141.2 2517.3 61.5998 2621 45.0998 2736.6C40.5998 2775.1 40.6998 2814.8 42.1998 2853.9C48.8998 2969.5 74.2998 3092.9 154.3 3180.8C181 3209.3 214.3 3231.7 251.3 3244.7L250.3 3247.5L250.5 3247.4Z"
                    fill="#C80041" />
                <path id="Vector_69"
                    d="M630.8 1909.6C632 1910 643.5 1914.6 644.4 1915L643.9 1917.1L637.8 1941.5L637.6 1942.2L637.1 1942.7L593.2 1986.3L592 1987.4L590.5 1986.8L581.2 1983.2L579.7 1982.6V1981L577.4 1919.2V1918.5L577.7 1917.9L589.9 1896L591 1894.1L593 1894.9L606.6 1900.2L603.9 1900.8L610.7 1893.8L611.6 1897.9L591.4 1890L588.9 1889L590.1 1886.6C599.3 1867.7 608.4 1848.6 617.2 1829.5C625.9 1810.4 634.9 1791.2 642 1771.7C644.1 1762.7 644.5 1752.5 640 1744.7C627.2 1723.3 593.9 1720.7 579.5 1698.6C565.2 1679.1 573.8 1656.2 595.7 1647.9C625.1 1636.3 659.7 1641.5 683.3 1620.3C713.9 1593.3 718.3 1546.8 721 1507.7C721 1506.3 722.2 1505.3 723.6 1505.3C724.9 1505.3 725.9 1506.4 726 1507.7C730 1578.9 712.7 1647.2 631.1 1656.2C605.1 1659.3 570.3 1671.5 602.9 1697.2C610.6 1702.1 620.6 1706.1 630.5 1711.7C655.9 1724.4 661.9 1750.8 649.2 1774.2C641.4 1794.2 632.1 1813.1 622.9 1832.1C613.6 1851.1 604.2 1870 594.5 1888.7L593.2 1885.3C595.6 1886.3 615 1893.8 616.9 1894.6L614.3 1897.3C613.7 1897.8 606.7 1905.1 606.3 1905.5C606 1905.5 591.9 1899.8 591.2 1899.6L594.3 1898.5L582.1 1920.4L582.4 1919.1L584.7 1980.9L583.1 1978.7L592.4 1982.3L589.7 1982.9L633.6 1939.3L632.9 1940.5L639 1916.1L640.5 1919L629 1914.4C626 1913.2 627.8 1908.5 630.8 1909.7V1909.6Z"
                    fill="#B7B7B7" />
            </g>
            <g id="pen-move">
                <path id="Vector_70"
                    d="M597 1963.8C602.1 1964.3 606.6 1960.5 607.1 1955.4C607.6 1950.3 603.8 1945.8 598.7 1945.3C593.6 1944.8 589.1 1948.6 588.6 1953.7C588.1 1958.8 591.9 1963.3 597 1963.8Z"
                    stroke="#C80041" stroke-width="5" stroke-miterlimit="3.13" />
                <path id="Vector_71" d="M251 3246C421 3304 572 3213.9 572 3354" stroke="#C80041"
                    stroke-width="5" stroke-miterlimit="10" />
                <path id="Vector_72"
                    d="M250.5 3247.4C91.9998 3192.1 42.5998 3005.3 34.0998 2854.2C29.4998 2775.3 33.4998 2692.5 72.7998 2621.8C128.3 2518.9 233.2 2425.9 355.9 2426.1C395.7 2427.4 430.7 2451.1 471.2 2446.4C620.3 2436.6 769.6 2275.8 725.2 2123.3C709.5 2066.8 664.1 2019.5 604.3 2013C573.3 2006.8 582.4 1983.8 591.8 1963.1L596.2 1965C574.4 2011.2 599 2004.3 634.7 2013.9C683.8 2028.7 718.6 2073.3 733.2 2120.9C780.3 2279.3 627.1 2446.7 471.6 2457.6C441.6 2460.5 411.3 2450.7 383.4 2441.7C336.3 2430.8 287.2 2443.3 244.3 2464.6C141.2 2517.3 61.5998 2621 45.0998 2736.6C40.5998 2775.1 40.6998 2814.8 42.1998 2853.9C48.8998 2969.5 74.2998 3092.9 154.3 3180.8C181 3209.3 214.3 3231.7 251.3 3244.7L250.3 3247.5L250.5 3247.4Z"
                    fill="#C80041" />
                <path id="Vector_73"
                    d="M630.8 1909.6C632 1910 643.5 1914.6 644.4 1915L643.9 1917.1L637.8 1941.5L637.6 1942.2L637.1 1942.7L593.2 1986.3L592 1987.4L590.5 1986.8L581.2 1983.2L579.7 1982.6V1981L577.4 1919.2V1918.5L577.7 1917.9L589.9 1896L591 1894.1L593 1894.9L606.6 1900.2L603.9 1900.8L610.7 1893.8L611.6 1897.9L591.4 1890L588.9 1889L590.1 1886.6C599.3 1867.7 608.4 1848.6 617.2 1829.5C625.9 1810.4 634.9 1791.2 642 1771.7C644.1 1762.7 644.5 1752.5 640 1744.7C627.2 1723.3 593.9 1720.7 579.5 1698.6C565.2 1679.1 573.8 1656.2 595.7 1647.9C625.1 1636.3 659.7 1641.5 683.3 1620.3C713.9 1593.3 718.3 1546.8 721 1507.7C721 1506.3 722.2 1505.3 723.6 1505.3C724.9 1505.3 725.9 1506.4 726 1507.7C730 1578.9 712.7 1647.2 631.1 1656.2C605.1 1659.3 570.3 1671.5 602.9 1697.2C610.6 1702.1 620.6 1706.1 630.5 1711.7C655.9 1724.4 661.9 1750.8 649.2 1774.2C641.4 1794.2 632.1 1813.1 622.9 1832.1C613.6 1851.1 604.2 1870 594.5 1888.7L593.2 1885.3C595.6 1886.3 615 1893.8 616.9 1894.6L614.3 1897.3C613.7 1897.8 606.7 1905.1 606.3 1905.5C606 1905.5 591.9 1899.8 591.2 1899.6L594.3 1898.5L582.1 1920.4L582.4 1919.1L584.7 1980.9L583.1 1978.7L592.4 1982.3L589.7 1982.9L633.6 1939.3L632.9 1940.5L639 1916.1L640.5 1919L629 1914.4C626 1913.2 627.8 1908.5 630.8 1909.7V1909.6Z"
                    fill="#C80041" />
            </g>
            <g id="header">
                <path id="header-track" d="M272 562H723V1510" stroke="#B7B7B7" stroke-width="5"
                    stroke-linecap="round" stroke-linejoin="round" />
                <path id="header-move" d="M272 562H723V1510" stroke="#C80041" stroke-width="5"
                    stroke-linecap="round" stroke-linejoin="round" />
            </g>
        </g>
    </g>
    <line id="Line 44" x1="-6121" y1="1717.5" x2="1443" y2="1662.5" stroke="black" />
    <defs>
        <linearGradient id="paint0_linear_0_1" x1="223" y1="15829.6" x2="258.4" y2="15553"
            gradientUnits="userSpaceOnUse">
            <stop stop-color="#006594" />
            <stop offset="0.14" stop-color="#0082B0" />
            <stop offset="0.17" stop-color="#118FB4" />
            <stop offset="0.25" stop-color="#3FB4C1" />
            <stop offset="0.29" stop-color="#52C3C6" />
            <stop offset="0.37" stop-color="#A19E82" />
            <stop offset="0.41" stop-color="#C98D61" />
            <stop offset="0.43" stop-color="#CF895B" />
            <stop offset="0.49" stop-color="#EA7E45" />
            <stop offset="0.53" stop-color="#F47A3D" />
            <stop offset="0.6" stop-color="#E7553E" />
            <stop offset="0.64" stop-color="#E1453E" />
            <stop offset="0.7" stop-color="#DA323F" />
            <stop offset="0.73" stop-color="#D4213F" />
            <stop offset="0.79" stop-color="#CB0940" />
            <stop offset="0.83" stop-color="#C80041" />
        </linearGradient>
        <clipPath id="clip0_0_1">
            <rect width="1024" height="16082" fill="white" />
        </clipPath>
    </defs>
</svg>